<svg width="27" height="22" viewBox="0 0 27 22" fill="none"
    xmlns="http://www.w3.org/2000/svg">
    <path d="M27 0.620837C25.8411 1.39078 24.5579 1.97966 23.1999 2.3648C22.4711 1.57547 21.5024 1.01601 20.4249 0.762093C19.3475 0.508175 18.2132 0.572047 17.1756 0.945069C16.1379 1.31809 15.2469 1.98227 14.6231 2.84777C13.9993 3.71327 13.6727 4.73834 13.6876 5.78433V6.92417C11.5608 6.97612 9.45341 6.53186 7.55305 5.63096C5.65269 4.73007 4.01838 3.4005 2.79568 1.76068C2.79568 1.76068 -2.04519 12.0193 8.84676 16.5787C6.35435 18.1721 3.38524 18.9711 0.375244 18.8583C11.2672 24.5576 24.5796 18.8583 24.5796 5.75014C24.5785 5.43264 24.546 5.11592 24.4827 4.80407C25.7179 3.6568 26.5895 2.20831 27 0.620837Z" fill="#F1F1F1"/>
</svg>
